<svg xmlns="http://www.w3.org/2000/svg" viewBox="-32 -32 64 64" width="64" height="64">
  <style>
    .is { fill: none; stroke: #ffffff; stroke-width: 2; stroke-linecap: round; stroke-linejoin: round; }
    .is1 { fill: none; stroke: #ffffff; stroke-width: 1.5; stroke-linecap: round; stroke-linejoin: round; }
    .if { fill: #ffffff; stroke: none; }
    .ibg { fill: #222222; }
    .adlabel { font-family: sans-serif; font-size: 6px; font-weight: bold; text-anchor: middle; fill: #ffffff; }
  </style>
  <g transform="translate(0,0)">

  <g transform="translate(-16, 2)">
    <path d="M-10,-16 L-16,-8 L-8,-5 L-8,14 L8,14 L8,-5 L16,-8 L10,-16 C7,-13 3,-11 0,-11 C-3,-11 -7,-13 -10,-16 Z" class="is"/>
  </g>
  <g transform="translate(18, 4)">
    <rect x="-10" y="-14" width="18" height="22" rx="2" class="is"/>
    <path d="M8,-6 C16,-6 16,8 8,8" class="is"/>
    <path d="M-4,-18 C-4,-22 -2,-22 -2,-18" class="is1"/>
    <path d="M2,-18 C2,-22 4,-22 4,-18" class="is1"/>
  </g>

  </g>
</svg>